<svg xmlns="http://www.w3.org/2000/svg" viewBox="0 0 120 120" fill="none">
  <defs>
    <linearGradient id="g" x1="0" y1="0" x2="120" y2="120" gradientUnits="userSpaceOnUse">
      <stop offset="0%" stop-color="#6BC16D" />
      <stop offset="100%" stop-color="#398145" />
    </linearGradient>
  </defs>
  <circle cx="60" cy="60" r="56" fill="url(#g)" stroke="#fff" stroke-width="6" opacity="0.95" />
  <path d="M38 64c0-7.7 5.1-14.1 12-16.3V42h8v5.7c1.5.2 3 .6 4.5 1.3L65 49l1 3 1-3 1.5-1.7c1.5-.7 3-1.1 4.5-1.3V42h8v5.7c6.9 2.2 12 8.6 12 16.3 0 9.2-7.5 17-17 17h-0.1-12-0.1c-9.5 0-17-7.8-17-17Zm24.5 12.5 10.2-10.2h-6.4v-8h-7.6v8h-6.4l10.2 10.2Zm-2.1-27c-4.2 0-7.8-3.4-7.8-7.6s3.4-7.6 7.6-7.6 7.6 3.4 7.6 7.6-3.4 7.6-7.4 7.6Z" fill="#fff"/>
  <circle cx="84" cy="28" r="10" fill="#fff" opacity="0.8" />
</svg>
